<svg
            width="1278"
            height="269"
            viewBox="0 0 1278 269"
            fill="none"
            xmlns="http://www.w3.org/2000/svg"
          >
            <path
              fill-rule="evenodd"
              clip-rule="evenodd"
              d="M563.455 60.8303C592.747 50.2243 625.09 65.3723 635.696 94.6641L741.318 386.376C751.924 415.668 736.777 448.012 707.484 458.618L548.368 516.23C519.076 526.836 486.733 511.688 476.127 482.396L370.505 190.684C359.899 161.392 375.047 129.049 404.338 118.443L563.455 60.8303ZM480.237 240.941C472.166 243.864 467.992 252.775 470.915 260.847L508.341 364.213C511.264 372.284 520.176 376.458 528.247 373.536L631.615 336.108C639.686 333.186 643.86 324.274 640.938 316.203L603.511 212.836C600.589 204.765 591.677 200.592 583.606 203.514L480.237 240.941Z"
              fill="#F34222"
            />
            <path
              fill-rule="evenodd"
              clip-rule="evenodd"
              d="M1203.46 41.39C1217.59 35.5366 1233.47 35.5368 1247.6 41.39L1356.39 86.4541C1370.52 92.3077 1381.75 103.535 1387.61 117.666L1432.67 226.459C1438.52 240.591 1438.52 256.469 1432.67 270.6L1387.61 379.393C1381.75 393.525 1370.53 404.753 1356.39 410.607L1247.6 455.669C1233.47 461.523 1217.59 461.523 1203.46 455.669L1094.67 410.607C1080.53 404.753 1069.31 393.525 1063.45 379.393L1018.39 270.6C1012.54 256.469 1012.54 240.59 1018.39 226.459L1063.45 117.666C1069.31 103.535 1080.53 92.3078 1094.67 86.4541L1203.46 41.39ZM1225.19 176.437C1185.37 176.437 1153.1 208.715 1153.1 248.531C1153.1 288.348 1185.37 320.626 1225.19 320.626C1265.01 320.625 1297.28 288.347 1297.28 248.531C1297.28 208.715 1265.01 176.438 1225.19 176.437Z"
              fill="#07998A"
            />
            <path
              fill-rule="evenodd"
              clip-rule="evenodd"
              d="M268.258 73.8842C302.09 38.7052 361.298 53.3483 374.833 100.242L469.677 428.865C483.211 475.758 440.922 519.732 393.556 508.018L61.6214 425.926C14.2557 414.212 -2.66137 355.595 31.1701 320.416L268.258 73.8842ZM284.187 238.008C244.686 228.239 204.743 252.353 194.97 291.87C185.197 331.386 209.295 371.34 248.796 381.11C288.297 390.879 328.242 366.763 338.015 327.247C347.788 287.73 323.688 247.777 284.187 238.008Z"
              fill="#3057E1"
            />
            <path
              d="M1052.02 152.884C1068.07 165.14 1076.37 185.031 1073.79 205.064L1053.95 358.78C1051.36 378.813 1038.29 395.945 1019.65 403.723L876.604 463.401C857.962 471.178 836.587 468.419 820.53 456.164L697.327 362.126C681.271 349.871 672.972 329.979 675.557 309.946L695.396 156.229C697.981 136.196 711.058 119.064 729.699 111.286L872.741 51.6087C891.383 43.8312 912.758 46.5901 928.814 58.8456L1052.02 152.884ZM965.672 219.965C956.655 198.351 931.823 188.139 910.209 197.156L805.849 240.696C784.235 249.714 774.024 274.546 783.042 296.16C792.059 317.773 816.89 327.984 838.504 318.967L942.865 275.427C964.478 266.41 974.689 241.579 965.672 219.965Z"
              fill="#FFD11A"
            />
          </svg> 