<svg width="250" height="250" viewBox="0 0 250 250" fill="none" xmlns="http://www.w3.org/2000/svg">
<path d="M175.033 0.00390625C193.443 0.00390625 208.366 14.9276 208.366 33.3369V216.672C208.366 235.081 193.443 250.005 175.033 250.005H75.0322C56.6229 250.005 41.6993 235.081 41.6992 216.672V33.3369C41.6993 14.9277 56.623 0.00402789 75.0322 0.00390625H175.033ZM92.5596 83.3379C87.4871 83.338 83.3751 87.45 83.375 92.5225V157.487C83.3752 162.56 87.4872 166.672 92.5596 166.672H157.524C162.597 166.672 166.709 162.56 166.709 157.487V92.5225C166.709 87.4501 162.597 83.3381 157.524 83.3379H92.5596Z" fill="#3057E1"/>
</svg>
