<svg width="251" height="250" viewBox="0 0 251 250" fill="none" xmlns="http://www.w3.org/2000/svg">
<path d="M216.688 0.00390625C235.097 0.00400521 250.02 14.9276 250.021 33.3369V216.672C250.02 235.081 235.097 250.005 216.688 250.005H33.3525C14.9433 250.005 0.0196302 235.081 0.0195312 216.672V33.3369C0.0196591 14.9277 14.9433 0.00402789 33.3525 0.00390625H216.688ZM92.5322 83.3379C87.4598 83.338 83.3477 87.45 83.3477 92.5225V157.487C83.3479 162.56 87.4599 166.672 92.5322 166.672H157.497C162.569 166.672 166.681 162.56 166.682 157.487V92.5225C166.682 87.4501 162.569 83.3381 157.497 83.3379H92.5322Z" fill="#3057E1"/>
</svg>
