<svg width="30" height="30" viewBox="0 0 30 30" fill="none" xmlns="http://www.w3.org/2000/svg">
<path fill-rule="evenodd" clip-rule="evenodd" d="M0.898607 12.8306C-0.299534 14.0287 -0.299536 15.9713 0.898605 17.1694L12.8306 29.1014C14.0287 30.2995 15.9713 30.2995 17.1694 29.1014L29.1014 17.1694C30.2995 15.9713 30.2995 14.0287 29.1014 12.8306L17.1694 0.898607C15.9713 -0.299535 14.0287 -0.299536 12.8306 0.898605L0.898607 12.8306ZM12.2855 12.2882C10.7879 13.7859 10.7879 16.2141 12.2855 17.7118C13.7832 19.2095 16.2115 19.2095 17.7092 17.7118C19.2068 16.2141 19.2068 13.7859 17.7092 12.2882C16.2115 10.7905 13.7832 10.7905 12.2855 12.2882Z" fill="#07998A"/>
</svg>
