<svg width="20" height="20" viewBox="0 0 20 20" fill="none" xmlns="http://www.w3.org/2000/svg">
<g clip-path="url(#clip0_2465_45636)">
<path fill-rule="evenodd" clip-rule="evenodd" d="M10.0007 2.49967C5.85851 2.49967 2.50065 5.85754 2.50065 9.99967C2.50065 14.1418 5.85851 17.4997 10.0007 17.4997C14.1428 17.4997 17.5006 14.1418 17.5006 9.99967C17.5006 5.85754 14.1428 2.49967 10.0007 2.49967ZM0.833984 9.99967C0.833984 4.93706 4.93804 0.833008 10.0007 0.833008C15.0633 0.833008 19.1673 4.93706 19.1673 9.99967C19.1673 15.0623 15.0633 19.1663 10.0007 19.1663C4.93804 19.1663 0.833984 15.0623 0.833984 9.99967Z" fill="#7D8294"/>
<path fill-rule="evenodd" clip-rule="evenodd" d="M9.99935 6.66667C9.07887 6.66667 8.33268 7.41286 8.33268 8.33333C8.33268 9.25381 9.07887 10 9.99935 10C10.9198 10 11.666 9.25381 11.666 8.33333C11.666 7.41286 10.9198 6.66667 9.99935 6.66667ZM6.66602 8.33333C6.66602 6.49238 8.1584 5 9.99935 5C11.8403 5 13.3327 6.49238 13.3327 8.33333C13.3327 10.1743 11.8403 11.6667 9.99935 11.6667C8.1584 11.6667 6.66602 10.1743 6.66602 8.33333Z" fill="#7D8294"/>
<path fill-rule="evenodd" clip-rule="evenodd" d="M7.5 14.9997C7.27899 14.9997 7.06702 15.0875 6.91074 15.2438C6.75446 15.4 6.66667 15.612 6.66667 15.833V17.218C6.66667 17.6782 6.29357 18.0513 5.83333 18.0513C5.3731 18.0513 5 17.6782 5 17.218V15.833C5 15.17 5.26339 14.5341 5.73223 14.0652C6.20107 13.5964 6.83696 13.333 7.5 13.333H12.5C13.163 13.333 13.7989 13.5964 14.2678 14.0652C14.7366 14.5341 15 15.17 15 15.833V17.218C15 17.6782 14.6269 18.0513 14.1667 18.0513C13.7064 18.0513 13.3333 17.6782 13.3333 17.218V15.833C13.3333 15.612 13.2455 15.4 13.0893 15.2438C12.933 15.0875 12.721 14.9997 12.5 14.9997H7.5Z" fill="#7D8294"/>
</g>
<defs>
<clipPath id="clip0_2465_45636">
<rect width="20" height="20" fill="white"/>
</clipPath>
</defs>
</svg>
