<svg width="20" height="20" viewBox="0 0 20 20" fill="none" xmlns="http://www.w3.org/2000/svg">
<path fill-rule="evenodd" clip-rule="evenodd" d="M4.05 6.25078C3.82457 6.25078 3.60837 6.34033 3.44896 6.49974C3.28955 6.65915 3.2 6.87535 3.2 7.10078V16.4508C3.2 16.6762 3.28955 16.8924 3.44896 17.0518C3.60837 17.2112 3.82457 17.3008 4.05 17.3008H13.4C13.6254 17.3008 13.8416 17.2112 14.001 17.0518C14.1604 16.8924 14.25 16.6762 14.25 16.4508V11.3508C14.25 10.8813 14.6306 10.5008 15.1 10.5008C15.5694 10.5008 15.95 10.8813 15.95 11.3508V16.4508C15.95 17.1271 15.6813 17.7757 15.2031 18.2539C14.7249 18.7321 14.0763 19.0008 13.4 19.0008H4.05C3.3737 19.0008 2.7251 18.7321 2.24688 18.2539C1.76866 17.7757 1.5 17.1271 1.5 16.4508V7.10078C1.5 6.42448 1.76866 5.77588 2.24688 5.29766C2.7251 4.81944 3.3737 4.55078 4.05 4.55078H9.15C9.61944 4.55078 10 4.93134 10 5.40078C10 5.87022 9.61944 6.25078 9.15 6.25078H4.05Z" fill="#7D8294"/>
<path fill-rule="evenodd" clip-rule="evenodd" d="M11.6992 2.85C11.6992 2.38056 12.0798 2 12.5492 2H17.6492C18.1187 2 18.4992 2.38056 18.4992 2.85V7.95C18.4992 8.41944 18.1187 8.8 17.6492 8.8C17.1798 8.8 16.7992 8.41944 16.7992 7.95V3.7H12.5492C12.0798 3.7 11.6992 3.31944 11.6992 2.85Z" fill="#7D8294"/>
<path fill-rule="evenodd" clip-rule="evenodd" d="M18.2503 2.24896C18.5822 2.5809 18.5822 3.1191 18.2503 3.45104L8.90026 12.801C8.56831 13.133 8.03012 13.133 7.69818 12.801C7.36623 12.4691 7.36623 11.9309 7.69818 11.599L17.0482 2.24896C17.3801 1.91701 17.9183 1.91701 18.2503 2.24896Z" fill="#7D8294"/>
</svg>
