<svg width="20" height="20" viewBox="0 0 20 20" fill="none" xmlns="http://www.w3.org/2000/svg">
<g clip-path="url(#clip0_2465_45623)">
<path fill-rule="evenodd" clip-rule="evenodd" d="M9.9987 2.49967C5.85656 2.49967 2.4987 5.85754 2.4987 9.99967C2.4987 14.1418 5.85656 17.4997 9.9987 17.4997C14.1408 17.4997 17.4987 14.1418 17.4987 9.99967C17.4987 5.85754 14.1408 2.49967 9.9987 2.49967ZM0.832031 9.99967C0.832031 4.93706 4.93609 0.833008 9.9987 0.833008C15.0613 0.833008 19.1654 4.93706 19.1654 9.99967C19.1654 15.0623 15.0613 19.1663 9.9987 19.1663C4.93609 19.1663 0.832031 15.0623 0.832031 9.99967Z" fill="#7D8294"/>
<path fill-rule="evenodd" clip-rule="evenodd" d="M0.832031 10.0003C0.832031 9.54009 1.20513 9.16699 1.66536 9.16699H18.332C18.7923 9.16699 19.1654 9.54009 19.1654 10.0003C19.1654 10.4606 18.7923 10.8337 18.332 10.8337H1.66536C1.20513 10.8337 0.832031 10.4606 0.832031 10.0003Z" fill="#7D8294"/>
<path fill-rule="evenodd" clip-rule="evenodd" d="M9.9987 0.833008C10.2328 0.833008 10.4561 0.931475 10.614 1.10432C12.8346 3.53543 14.0966 6.69039 14.1652 9.98232C14.1654 9.99389 14.1654 10.0055 14.1652 10.017C14.0966 13.309 12.8346 16.4639 10.614 18.895C10.4561 19.0679 10.2328 19.1663 9.9987 19.1663C9.7646 19.1663 9.54129 19.0679 9.38341 18.895C7.16277 16.4639 5.90079 13.309 5.83221 10.017C5.83197 10.0055 5.83197 9.99389 5.83221 9.98232C5.90079 6.69039 7.16277 3.53543 9.38341 1.10432C9.54129 0.931475 9.7646 0.833008 9.9987 0.833008ZM7.49889 9.99967C7.556 12.562 8.43724 15.029 9.9987 17.0407C11.5601 15.029 12.4414 12.562 12.4985 9.99967C12.4414 7.43731 11.5602 4.97038 9.9987 2.95867C8.43724 4.97038 7.556 7.43731 7.49889 9.99967Z" fill="#7D8294"/>
</g>
<defs>
<clipPath id="clip0_2465_45623">
<rect width="20" height="20" fill="white"/>
</clipPath>
</defs>
</svg>
