<svg width="20" height="20" viewBox="0 0 20 20" fill="none" xmlns="http://www.w3.org/2000/svg">
<path fill-rule="evenodd" clip-rule="evenodd" d="M15.5886 4.41107C15.914 4.73651 15.914 5.26414 15.5886 5.58958L5.5886 15.5896C5.26317 15.915 4.73553 15.915 4.41009 15.5896C4.08466 15.2641 4.08466 14.7365 4.41009 14.4111L14.4101 4.41107C14.7355 4.08563 15.2632 4.08563 15.5886 4.41107Z" fill="#F2F2F2" fill-opacity="0.8"/>
<path fill-rule="evenodd" clip-rule="evenodd" d="M4.41009 4.41107C4.73553 4.08563 5.26317 4.08563 5.5886 4.41107L15.5886 14.4111C15.914 14.7365 15.914 15.2641 15.5886 15.5896C15.2632 15.915 14.7355 15.915 14.4101 15.5896L4.41009 5.58958C4.08466 5.26414 4.08466 4.73651 4.41009 4.41107Z" fill="#F2F2F2" fill-opacity="0.8"/>
</svg>
