<svg width="20" height="20" viewBox="0 0 20 20" fill="none" xmlns="http://www.w3.org/2000/svg">
<path fill-rule="evenodd" clip-rule="evenodd" d="M1.56622 2.39923C2.03506 1.93038 2.67094 1.66699 3.33398 1.66699H6.6133C7.02506 1.66912 7.42993 1.77294 7.79192 1.9692C8.15162 2.16422 8.45792 2.44452 8.68398 2.78547L9.36369 3.78017L9.37163 3.792C9.44712 3.90664 9.54975 4.00085 9.67042 4.06627C9.79056 4.13141 9.92487 4.16599 10.0615 4.16699H16.6673C17.3304 4.16699 17.9662 4.43038 18.4351 4.89922C18.9039 5.36807 19.1673 6.00395 19.1673 6.66699V15.0003C19.1673 15.6634 18.9039 16.2993 18.4351 16.7681C17.9662 17.2369 17.3304 17.5003 16.6673 17.5003H3.33398C1.95708 17.5003 0.833984 16.3772 0.833984 15.0003V4.16699C0.833984 3.50395 1.09738 2.86807 1.56622 2.39923ZM3.33398 3.33366C3.11297 3.33366 2.90101 3.42146 2.74473 3.57774C2.58845 3.73402 2.50065 3.94598 2.50065 4.16699V15.0003C2.50065 15.4568 2.87755 15.8337 3.33398 15.8337H16.6673C16.8883 15.8337 17.1003 15.7459 17.2566 15.5896C17.4129 15.4333 17.5006 15.2213 17.5006 15.0003V6.66699C17.5006 6.44598 17.4129 6.23402 17.2566 6.07774C17.1003 5.92146 16.8883 5.83366 16.6673 5.83366H10.0547C9.6429 5.83153 9.23804 5.72771 8.87605 5.53145C8.51635 5.33643 8.21005 5.05613 7.98399 4.71518L7.30428 3.72048L7.29634 3.70865C7.22085 3.59401 7.11821 3.4998 6.99755 3.43438C6.87741 3.36924 6.7431 3.33466 6.60646 3.33366H3.33398Z" fill="#7D8294"/>
</svg>
