<svg width="131" height="26" viewBox="0 0 131 26" fill="none" xmlns="http://www.w3.org/2000/svg">
<path fill-rule="evenodd" clip-rule="evenodd" d="M10.6904 1.60224C10.0788 2.0627 9.54737 3.05266 8.48447 5.03259L1.50774 18.0285C0.547558 19.8171 0.0674679 20.7114 0.0106491 21.435C-0.105085 22.909 0.731245 24.2941 2.09456 24.8863C2.76386 25.1771 3.78393 25.1771 5.82405 25.1771H19.7775C21.8176 25.1771 22.8377 25.1771 23.507 24.8863C24.8703 24.2941 25.7066 22.909 25.5909 21.435C25.5341 20.7114 25.054 19.8171 24.0938 18.0285L17.1171 5.03259C16.0542 3.05266 15.5227 2.0627 14.9112 1.60224C13.6632 0.662536 11.9384 0.662536 10.6904 1.60224ZM12.6014 6.37681C12.1729 6.49315 11.8735 7.05342 11.2749 8.17398L5.16434 19.6112C4.64994 20.574 5.334 21.7383 6.43069 21.7666C8.15759 21.8112 20.5135 19.8181 18.1984 15.3707L14.4609 8.19089C13.8743 7.06405 13.581 6.50063 13.1537 6.37974C12.9733 6.32872 12.7824 6.3277 12.6014 6.37681Z" fill="#FFD11A"/>
<path d="M31.7746 20V5.73464H37.4807C39.1953 5.73464 40.5347 6.14988 41.4992 6.98035C42.477 7.81082 42.9659 8.94937 42.9659 10.396C42.9659 11.347 42.7449 12.1775 42.3028 12.8874C41.8742 13.5839 41.2447 14.1264 40.4142 14.5149C39.5971 14.8899 38.6193 15.0774 37.4807 15.0774H34.8286V20H31.7746ZM34.8286 12.5057H37.2999C38.1036 12.5057 38.7265 12.3315 39.1685 11.9833C39.6105 11.6216 39.8315 11.0925 39.8315 10.396C39.8315 9.71287 39.6105 9.19717 39.1685 8.84891C38.7398 8.48725 38.117 8.30643 37.2999 8.30643H34.8286V12.5057ZM45.4039 23.0138V20.7635H46.8305C47.1787 20.7635 47.4332 20.7099 47.594 20.6028C47.7681 20.509 47.902 20.3349 47.9958 20.0804L48.2168 19.4575H47.393L43.6157 9.23066H46.6898L49.1611 16.6446L51.4717 9.23066H54.5458L50.4068 21.0247C50.1657 21.7346 49.8175 22.2436 49.3621 22.5517C48.9066 22.8598 48.2704 23.0138 47.4533 23.0138H45.4039ZM60.1008 20C58.989 20 58.1719 19.7455 57.6496 19.2365C57.1272 18.7141 56.866 17.8903 56.866 16.7652V6.69906H59.8798V16.4035C59.8798 16.9259 59.9869 17.2809 60.2012 17.4684C60.429 17.6559 60.7638 17.7497 61.2058 17.7497H62.7128V20H60.1008ZM55.138 11.481V9.23066H62.7128V11.481H55.138ZM64.2886 20V5.73464H67.3024V11.7422H66.9005C67.0077 11.1126 67.2153 10.5969 67.5234 10.1951C67.8449 9.79324 68.24 9.49186 68.7088 9.29094C69.191 9.09002 69.7134 8.98956 70.276 8.98956C71.0797 8.98956 71.7494 9.16369 72.2852 9.51195C72.821 9.86021 73.2228 10.3424 73.4907 10.9586C73.772 11.5747 73.9127 12.278 73.9127 13.0682V20H70.8989V13.7916C70.8989 12.9879 70.7716 12.3851 70.5171 11.9833C70.276 11.5814 69.8608 11.3805 69.2714 11.3805C68.6552 11.3805 68.173 11.5881 67.8248 12.0034C67.4765 12.4186 67.3024 13.0415 67.3024 13.8719V20H64.2886ZM79.31 20.2411C78.1983 20.2411 77.2874 19.9866 76.5775 19.4776C75.881 18.9552 75.5327 18.2319 75.5327 17.3077C75.5327 16.3566 75.8274 15.6266 76.4168 15.1176C77.0195 14.5952 77.9036 14.2135 79.0689 13.9724L82.5449 13.2893C82.5449 12.5927 82.3841 12.0703 82.0627 11.7221C81.7546 11.3604 81.3059 11.1796 80.7165 11.1796C80.1405 11.1796 79.6918 11.3135 79.3703 11.5814C79.0488 11.8359 78.8412 12.2177 78.7475 12.7267L75.7136 12.586C75.9145 11.4073 76.4436 10.5166 77.3008 9.91379C78.1715 9.29763 79.31 8.98956 80.7165 8.98956C82.3238 8.98956 83.5294 9.3713 84.3331 10.1348C85.1501 10.8983 85.5587 12.0168 85.5587 13.4902V17.167C85.5587 17.4751 85.6056 17.6827 85.6993 17.7899C85.8065 17.8836 85.9605 17.9305 86.1614 17.9305H86.4628V20C86.369 20.0268 86.215 20.0536 86.0007 20.0804C85.7998 20.1072 85.5989 20.1206 85.3979 20.1206C84.9693 20.1206 84.5675 20.0469 84.1924 19.8995C83.8308 19.7522 83.5361 19.5044 83.3084 19.1561C83.0806 18.7945 82.9668 18.2855 82.9668 17.6291L83.228 17.8301C83.094 18.3123 82.8529 18.7342 82.5047 19.0959C82.1698 19.4575 81.7278 19.7388 81.1786 19.9397C80.6428 20.1406 80.02 20.2411 79.31 20.2411ZM80.0334 18.1716C80.529 18.1716 80.9643 18.0779 81.3393 17.8903C81.7144 17.6894 82.0091 17.4014 82.2234 17.0264C82.4377 16.6513 82.5449 16.2093 82.5449 15.7003V15.1779L80.0936 15.7003C79.6114 15.7941 79.2431 15.9548 78.9886 16.1825C78.7475 16.3968 78.6269 16.6781 78.6269 17.0264C78.6269 17.388 78.7475 17.6693 78.9886 17.8702C79.2297 18.0712 79.5779 18.1716 80.0334 18.1716ZM92.47 23.2549C91.4386 23.2549 90.5747 23.1277 89.8781 22.8732C89.195 22.6187 88.6458 22.2637 88.2306 21.8083C87.8288 21.3529 87.5475 20.8305 87.3867 20.2411L90.4809 20.0201C90.5881 20.3684 90.789 20.6429 91.0837 20.8439C91.3917 21.0448 91.8539 21.1452 92.47 21.1452C93.1933 21.1452 93.7425 20.9711 94.1176 20.6229C94.506 20.288 94.7002 19.7455 94.7002 18.9954V17.8502C94.4457 18.3458 94.0372 18.7476 93.4746 19.0557C92.912 19.3504 92.2825 19.4977 91.586 19.4977C90.7019 19.4977 89.9183 19.2834 89.2352 18.8548C88.5521 18.4127 88.0163 17.8033 87.6278 17.0264C87.2528 16.2361 87.0653 15.3119 87.0653 14.2537C87.0653 13.2223 87.2528 12.3114 87.6278 11.5212C88.0163 10.7309 88.5454 10.1147 89.2151 9.67269C89.8982 9.21727 90.6751 8.98956 91.5458 8.98956C92.3361 8.98956 92.9991 9.16369 93.5349 9.51195C94.0841 9.86021 94.4993 10.3223 94.7806 10.8983V9.23066H97.7341V18.9351C97.7341 19.8995 97.5131 20.6965 97.0711 21.3261C96.6291 21.969 96.0129 22.4512 95.2226 22.7727C94.4323 23.0942 93.5148 23.2549 92.47 23.2549ZM92.4499 17.2675C93.1465 17.2675 93.6956 16.9996 94.0975 16.4638C94.5127 15.928 94.7203 15.1846 94.7203 14.2336C94.7203 13.604 94.6266 13.0615 94.439 12.6061C94.2649 12.1507 94.0037 11.8024 93.6555 11.5613C93.3206 11.3202 92.9187 11.1997 92.4499 11.1997C91.7266 11.1997 91.164 11.4743 90.7622 12.0235C90.3604 12.5726 90.1594 13.3093 90.1594 14.2336C90.1594 15.1712 90.3671 15.9146 90.7823 16.4638C91.1975 16.9996 91.7534 17.2675 92.4499 17.2675ZM104.867 20.2411C103.769 20.2411 102.811 20.0134 101.994 19.558C101.177 19.0892 100.541 18.4328 100.085 17.589C99.63 16.7451 99.4022 15.7539 99.4022 14.6153C99.4022 13.4768 99.63 12.4923 100.085 11.6618C100.541 10.8179 101.177 10.1616 101.994 9.69278C102.811 9.22396 103.769 8.98956 104.867 8.98956C105.966 8.98956 106.923 9.22396 107.74 9.69278C108.558 10.1616 109.194 10.8179 109.649 11.6618C110.105 12.4923 110.332 13.4768 110.332 14.6153C110.332 15.7539 110.105 16.7451 109.649 17.589C109.194 18.4328 108.558 19.0892 107.74 19.558C106.923 20.0134 105.966 20.2411 104.867 20.2411ZM104.867 17.9305C105.617 17.9305 106.2 17.6425 106.615 17.0666C107.031 16.4772 107.238 15.6601 107.238 14.6153C107.238 13.5705 107.031 12.7602 106.615 12.1842C106.2 11.5948 105.617 11.3001 104.867 11.3001C104.117 11.3001 103.535 11.5948 103.119 12.1842C102.704 12.7602 102.496 13.5705 102.496 14.6153C102.496 15.6601 102.704 16.4772 103.119 17.0666C103.535 17.6425 104.117 17.9305 104.867 17.9305ZM112.008 20V9.23066H114.861L114.962 12.365L114.74 12.3047C114.915 11.2198 115.223 10.4362 115.665 9.95397C116.107 9.47177 116.716 9.23066 117.493 9.23066H118.478V11.7221H117.493C116.931 11.7221 116.468 11.7957 116.107 11.9431C115.745 12.0904 115.471 12.3248 115.283 12.6463C115.109 12.9678 115.022 13.4031 115.022 13.9523V20H112.008ZM122.85 20.2411C121.738 20.2411 120.828 19.9866 120.118 19.4776C119.421 18.9552 119.073 18.2319 119.073 17.3077C119.073 16.3566 119.368 15.6266 119.957 15.1176C120.56 14.5952 121.444 14.2135 122.609 13.9724L126.085 13.2893C126.085 12.5927 125.924 12.0703 125.603 11.7221C125.295 11.3604 124.846 11.1796 124.257 11.1796C123.681 11.1796 123.232 11.3135 122.91 11.5814C122.589 11.8359 122.381 12.2177 122.288 12.7267L119.254 12.586C119.455 11.4073 119.984 10.5166 120.841 9.91379C121.712 9.29763 122.85 8.98956 124.257 8.98956C125.864 8.98956 127.069 9.3713 127.873 10.1348C128.69 10.8983 129.099 12.0168 129.099 13.4902V17.167C129.099 17.4751 129.146 17.6827 129.239 17.7899C129.347 17.8836 129.501 17.9305 129.702 17.9305H130.003V20C129.909 20.0268 129.755 20.0536 129.541 20.0804C129.34 20.1072 129.139 20.1206 128.938 20.1206C128.509 20.1206 128.108 20.0469 127.733 19.8995C127.371 19.7522 127.076 19.5044 126.848 19.1561C126.621 18.7945 126.507 18.2855 126.507 17.6291L126.768 17.8301C126.634 18.3123 126.393 18.7342 126.045 19.0959C125.71 19.4575 125.268 19.7388 124.719 19.9397C124.183 20.1406 123.56 20.2411 122.85 20.2411ZM123.573 18.1716C124.069 18.1716 124.504 18.0779 124.879 17.8903C125.254 17.6894 125.549 17.4014 125.763 17.0264C125.978 16.6513 126.085 16.2093 126.085 15.7003V15.1779L123.634 15.7003C123.152 15.7941 122.783 15.9548 122.529 16.1825C122.288 16.3968 122.167 16.6781 122.167 17.0264C122.167 17.388 122.288 17.6693 122.529 17.8702C122.77 18.0712 123.118 18.1716 123.573 18.1716Z" fill="#F7F8F8"/>
</svg>
