<svg width="20" height="20" viewBox="0 0 20 20" fill="none" xmlns="http://www.w3.org/2000/svg">
<path fill-rule="evenodd" clip-rule="evenodd" d="M8.33398 5.83333C8.33398 5.3731 8.70708 5 9.16732 5H16.6673C17.1276 5 17.5007 5.3731 17.5007 5.83333C17.5007 6.29357 17.1276 6.66667 16.6673 6.66667H9.16732C8.70708 6.66667 8.33398 6.29357 8.33398 5.83333Z" fill="#7D8294"/>
<path fill-rule="evenodd" clip-rule="evenodd" d="M3.33398 14.1663C3.33398 13.7061 3.70708 13.333 4.16732 13.333H11.6673C12.1276 13.333 12.5007 13.7061 12.5007 14.1663C12.5007 14.6266 12.1276 14.9997 11.6673 14.9997H4.16732C3.70708 14.9997 3.33398 14.6266 3.33398 14.1663Z" fill="#7D8294"/>
<path fill-rule="evenodd" clip-rule="evenodd" d="M14.1673 12.4997C13.2468 12.4997 12.5007 13.2459 12.5007 14.1663C12.5007 15.0868 13.2468 15.833 14.1673 15.833C15.0878 15.833 15.834 15.0868 15.834 14.1663C15.834 13.2459 15.0878 12.4997 14.1673 12.4997ZM10.834 14.1663C10.834 12.3254 12.3264 10.833 14.1673 10.833C16.0083 10.833 17.5007 12.3254 17.5007 14.1663C17.5007 16.0073 16.0083 17.4997 14.1673 17.4997C12.3264 17.4997 10.834 16.0073 10.834 14.1663Z" fill="#7D8294"/>
<path fill-rule="evenodd" clip-rule="evenodd" d="M5.83333 4.16667C4.91286 4.16667 4.16667 4.91286 4.16667 5.83333C4.16667 6.75381 4.91286 7.5 5.83333 7.5C6.75381 7.5 7.5 6.75381 7.5 5.83333C7.5 4.91286 6.75381 4.16667 5.83333 4.16667ZM2.5 5.83333C2.5 3.99238 3.99238 2.5 5.83333 2.5C7.67428 2.5 9.16667 3.99238 9.16667 5.83333C9.16667 7.67428 7.67428 9.16667 5.83333 9.16667C3.99238 9.16667 2.5 7.67428 2.5 5.83333Z" fill="#7D8294"/>
</svg>
