<svg width="20" height="20" viewBox="0 0 20 20" fill="none" xmlns="http://www.w3.org/2000/svg">
<path fill-rule="evenodd" clip-rule="evenodd" d="M3.33398 4.99967C2.87375 4.99967 2.50065 5.37277 2.50065 5.83301V14.1663C2.50065 14.6266 2.87375 14.9997 3.33398 14.9997H16.6673C17.1276 14.9997 17.5007 14.6266 17.5007 14.1663V5.83301C17.5007 5.37277 17.1276 4.99967 16.6673 4.99967H3.33398ZM0.833984 5.83301C0.833984 4.4523 1.95327 3.33301 3.33398 3.33301H16.6673C18.048 3.33301 19.1673 4.4523 19.1673 5.83301V14.1663C19.1673 15.5471 18.048 16.6663 16.6673 16.6663H3.33398C1.95327 16.6663 0.833984 15.5471 0.833984 14.1663V5.83301Z" fill="#7D8294"/>
<path fill-rule="evenodd" clip-rule="evenodd" d="M0.833984 8.33333C0.833984 7.8731 1.20708 7.5 1.66732 7.5H18.334C18.7942 7.5 19.1673 7.8731 19.1673 8.33333C19.1673 8.79357 18.7942 9.16667 18.334 9.16667H1.66732C1.20708 9.16667 0.833984 8.79357 0.833984 8.33333Z" fill="#7D8294"/>
</svg>
