<svg width="20" height="20" viewBox="0 0 20 20" fill="none" xmlns="http://www.w3.org/2000/svg">
<g clip-path="url(#clip0_2465_41503)">
<path fill-rule="evenodd" clip-rule="evenodd" d="M10.6461 2.29223C11.5891 1.38144 12.8521 0.877469 14.1631 0.888861C15.4741 0.900253 16.7282 1.4261 17.6552 2.35314C18.5823 3.28018 19.1081 4.53424 19.1195 5.84522C19.1309 7.15621 18.6269 8.41922 17.7161 9.36223L17.706 9.37256L15.2061 11.8725C14.6992 12.3795 14.0892 12.7716 13.4174 13.0222C12.7457 13.2728 12.0279 13.376 11.3127 13.3248C10.5976 13.2736 9.90182 13.0692 9.27263 12.7254C8.64344 12.3816 8.09553 11.9066 7.66608 11.3325C7.39041 10.9639 7.46569 10.4417 7.83423 10.166C8.20278 9.89033 8.72502 9.96561 9.00069 10.3342C9.28699 10.7169 9.65226 11.0336 10.0717 11.2628C10.4912 11.492 10.955 11.6282 11.4318 11.6624C11.9085 11.6965 12.3871 11.6277 12.8349 11.4607C13.2828 11.2936 13.6894 11.0322 14.0274 10.6942L14.0275 10.694L16.5221 8.19945C17.1263 7.57131 17.4605 6.73142 17.4529 5.85971C17.4453 4.98572 17.0947 4.14968 16.4767 3.53165C15.8587 2.91362 15.0226 2.56306 14.1486 2.55546C13.2766 2.54789 12.4363 2.88239 11.8081 3.48709L10.3793 4.90761C10.0529 5.2321 9.52523 5.23056 9.20075 4.90417C8.87626 4.57779 8.8778 4.05015 9.20418 3.72567L10.6375 2.30067L10.6461 2.29223Z" fill="#7D8294"/>
<path fill-rule="evenodd" clip-rule="evenodd" d="M6.58312 6.97744C7.25488 6.72685 7.97267 6.62367 8.68781 6.67488C9.40295 6.7261 10.0987 6.93052 10.7279 7.27428C11.3571 7.61803 11.905 8.09309 12.3345 8.66722C12.6101 9.03576 12.5348 9.558 12.1663 9.83367C11.7978 10.1093 11.2755 10.0341 10.9999 9.66551C10.7136 9.28276 10.3483 8.96606 9.92882 8.73689C9.50936 8.50772 9.04552 8.37144 8.56875 8.33729C8.09199 8.30315 7.61346 8.37194 7.16562 8.53899C6.71778 8.70605 6.31111 8.96747 5.97319 9.30551L3.47849 11.8002C2.87429 12.4284 2.54008 13.2683 2.54765 14.14C2.55525 15.014 2.90581 15.85 3.52384 16.468C4.14186 17.086 4.97791 17.4366 5.85189 17.4442C6.7236 17.4518 7.56349 17.1176 8.19163 16.5134L9.61124 15.0938C9.93667 14.7683 10.4643 14.7683 10.7897 15.0938C11.1152 15.4192 11.1152 15.9469 10.7897 16.2723L9.36475 17.6973L9.35442 17.7074C8.41141 18.6182 7.1484 19.1222 5.83741 19.1108C4.52643 19.0994 3.27237 18.5736 2.34533 17.6465C1.41829 16.7195 0.89244 15.4654 0.881048 14.1544C0.869656 12.8435 1.37363 11.5805 2.28442 10.6374L2.29457 10.6271L4.79446 8.12722C4.7945 8.12718 4.79443 8.12725 4.79446 8.12722C5.30133 7.6202 5.91141 7.228 6.58312 6.97744Z" fill="#7D8294"/>
</g>
<defs>
<clipPath id="clip0_2465_41503">
<rect width="20" height="20" fill="white"/>
</clipPath>
</defs>
</svg>
