<svg width="20" height="20" viewBox="0 0 20 20" fill="none" xmlns="http://www.w3.org/2000/svg">
<path fill-rule="evenodd" clip-rule="evenodd" d="M11.666 1.66602H4.99935C3.1584 1.66602 1.66602 3.1584 1.66602 4.99935V11.666C1.66602 13.507 3.1584 14.9993 4.99935 14.9993C4.99935 16.8403 6.49173 18.3327 8.33268 18.3327H11.2493H14.9993C16.8403 18.3327 18.3327 16.8403 18.3327 14.9993V8.33268C18.3327 6.49173 16.8403 4.99935 14.9993 4.99935C14.9993 3.1584 13.507 1.66602 11.666 1.66602ZM14.9993 6.66602V11.666C14.9993 13.507 13.507 14.9993 11.666 14.9993H6.66602C6.66602 15.9198 7.41221 16.666 8.33268 16.666H11.2493H14.9993C15.9198 16.666 16.666 15.9198 16.666 14.9993V8.33268C16.666 7.41221 15.9198 6.66602 14.9993 6.66602ZM3.33268 4.99935C3.33268 4.07887 4.07887 3.33268 4.99935 3.33268H11.666C12.5865 3.33268 13.3327 4.07887 13.3327 4.99935V11.666C13.3327 12.5865 12.5865 13.3327 11.666 13.3327H4.99935C4.07887 13.3327 3.33268 12.5865 3.33268 11.666V4.99935Z" fill="#7D8294"/>
</svg>
