<svg width="20" height="20" viewBox="0 0 20 20" fill="none" xmlns="http://www.w3.org/2000/svg">
<path fill-rule="evenodd" clip-rule="evenodd" d="M4.16602 3.33268C3.70578 3.33268 3.33268 3.70578 3.33268 4.16602V15.8327C3.33268 16.2929 3.70578 16.666 4.16602 16.666H15.8327C16.2929 16.666 16.666 16.2929 16.666 15.8327V4.16602C16.666 3.70578 16.2929 3.33268 15.8327 3.33268H4.16602ZM1.66602 4.16602C1.66602 2.7853 2.7853 1.66602 4.16602 1.66602H15.8327C17.2134 1.66602 18.3327 2.7853 18.3327 4.16602V15.8327C18.3327 17.2134 17.2134 18.3327 15.8327 18.3327H4.16602C2.7853 18.3327 1.66602 17.2134 1.66602 15.8327V4.16602Z" fill="#7D8294"/>
<path fill-rule="evenodd" clip-rule="evenodd" d="M5.83398 6.66732C5.83398 6.20708 6.20708 5.83398 6.66732 5.83398H13.334C13.7942 5.83398 14.1673 6.20708 14.1673 6.66732V13.334C14.1673 13.7942 13.7942 14.1673 13.334 14.1673C12.8737 14.1673 12.5007 13.7942 12.5007 13.334V7.50065H6.66732C6.20708 7.50065 5.83398 7.12755 5.83398 6.66732Z" fill="#7D8294"/>
<path fill-rule="evenodd" clip-rule="evenodd" d="M13.9232 6.07806C14.2487 6.4035 14.2487 6.93114 13.9232 7.25657L7.25657 13.9232C6.93114 14.2487 6.4035 14.2487 6.07806 13.9232C5.75263 13.5978 5.75263 13.0702 6.07806 12.7447L12.7447 6.07806C13.0702 5.75263 13.5978 5.75263 13.9232 6.07806Z" fill="#7D8294"/>
</svg>
