<svg width="20" height="20" viewBox="0 0 20 20" fill="none" xmlns="http://www.w3.org/2000/svg">
<path fill-rule="evenodd" clip-rule="evenodd" d="M5 2.50065C4.77899 2.50065 4.56702 2.58845 4.41074 2.74473C4.25446 2.90101 4.16667 3.11297 4.16667 3.33398V11.2507C4.16667 11.7109 3.79357 12.084 3.33333 12.084C2.8731 12.084 2.5 11.7109 2.5 11.2507V3.33398C2.5 2.67094 2.76339 2.03506 3.23223 1.56622C3.70107 1.09738 4.33696 0.833984 5 0.833984H12.0833C12.3043 0.833984 12.5163 0.921782 12.6726 1.07806L17.2559 5.6614C17.4122 5.81768 17.5 6.02964 17.5 6.25065V16.6673C17.5 17.3304 17.2366 17.9662 16.7678 18.4351C16.2989 18.9039 15.663 19.1673 15 19.1673H10.4167C9.95643 19.1673 9.58333 18.7942 9.58333 18.334C9.58333 17.8737 9.95643 17.5006 10.4167 17.5006H15C15.221 17.5006 15.433 17.4129 15.5893 17.2566C15.7455 17.1003 15.8333 16.8883 15.8333 16.6673V6.59583L11.7382 2.50065H5Z" fill="#7D8294"/>
<path fill-rule="evenodd" clip-rule="evenodd" d="M11.6673 0.833984C12.1276 0.833984 12.5007 1.20708 12.5007 1.66732V5.83398H16.6673C17.1276 5.83398 17.5007 6.20708 17.5007 6.66732C17.5007 7.12755 17.1276 7.50065 16.6673 7.50065H11.6673C11.2071 7.50065 10.834 7.12755 10.834 6.66732V1.66732C10.834 1.20708 11.2071 0.833984 11.6673 0.833984Z" fill="#7D8294"/>
<path fill-rule="evenodd" clip-rule="evenodd" d="M9.92085 10.8288C9.80046 10.8288 9.68125 10.8525 9.57002 10.8986C9.45895 10.9446 9.358 11.012 9.27295 11.0969C9.27283 11.0971 9.27306 11.0968 9.27295 11.0969L4.91073 15.4672L4.48071 17.1829L6.19883 16.748L10.5691 12.3938C10.569 12.3939 10.5692 12.3936 10.5691 12.3938C10.654 12.3087 10.7218 12.2074 10.7678 12.0964C10.8139 11.9851 10.8376 11.8659 10.8376 11.7455C10.8376 11.6251 10.8139 11.5059 10.7678 11.3947C10.7218 11.2835 10.6542 11.1824 10.5691 11.0973C10.484 11.0122 10.3829 10.9446 10.2717 10.8986C10.1605 10.8525 10.0412 10.8288 9.92085 10.8288ZM8.93222 9.35876C9.24565 9.22893 9.58159 9.16211 9.92085 9.16211C10.2601 9.16211 10.596 9.22893 10.9095 9.35876C11.2229 9.48859 11.5077 9.67888 11.7476 9.91878C11.9875 10.1587 12.1778 10.4435 12.3076 10.7569C12.4375 11.0703 12.5043 11.4063 12.5043 11.7455C12.5043 12.0848 12.4375 12.4207 12.3076 12.7342C12.1778 13.0476 11.9875 13.3324 11.7476 13.5723L7.21319 18.09C7.10716 18.1957 6.97463 18.2708 6.82954 18.3075L3.53787 19.1409C3.25359 19.2128 2.9524 19.1301 2.7448 18.923C2.53719 18.7159 2.45373 18.4149 2.52502 18.1304L3.35002 14.8388C3.38663 14.6927 3.46216 14.5592 3.56855 14.4527L8.09355 9.91932C8.33345 9.67943 8.61878 9.48859 8.93222 9.35876Z" fill="#7D8294"/>
</svg>
