<svg width="21" height="20" viewBox="0 0 21 20" fill="none" xmlns="http://www.w3.org/2000/svg">
<path d="M10.4046 0C4.79566 0 0.248047 4.54761 0.248047 10.1566C0.248047 14.9158 3.52524 18.898 7.94335 20C7.89595 19.8629 7.86548 19.7038 7.86548 19.5066V17.7706C7.4533 17.7706 6.76265 17.7706 6.58914 17.7706C5.89426 17.7706 5.2764 17.4719 4.97678 16.9166C4.64415 16.2996 4.5866 15.3559 3.76222 14.7787C3.51762 14.5865 3.70382 14.3673 3.98567 14.397C4.50619 14.5442 4.93785 14.9014 5.34411 15.4312C5.74868 15.9619 5.93912 16.0821 6.69494 16.0821C7.06142 16.0821 7.60988 16.0609 8.12617 15.9797C8.40378 15.2747 8.88368 14.6255 9.47022 14.3191C6.08808 13.9712 4.47403 12.2886 4.47403 10.0042C4.47403 9.02074 4.89299 8.0694 5.6048 7.26788C5.3712 6.47228 5.0775 4.84977 5.69451 4.23191C7.21631 4.23191 8.13633 5.21879 8.35723 5.4854C9.11559 5.22556 9.94843 5.07829 10.8236 5.07829C11.7004 5.07829 12.5367 5.22556 13.2967 5.48709C13.5151 5.22218 14.4359 4.23191 15.9611 4.23191C16.5807 4.85061 16.2836 6.4799 16.0475 7.2738C16.755 8.07364 17.1715 9.02243 17.1715 10.0042C17.1715 12.2869 15.5599 13.9687 12.1829 14.3182C13.1122 14.8032 13.7902 16.1659 13.7902 17.1926V19.5066C13.7902 19.5946 13.7707 19.6581 13.7605 19.7334C17.7182 18.3462 20.5612 14.5882 20.5612 10.1566C20.5612 4.54761 16.0136 0 10.4046 0Z" fill="#060218"/>
</svg>
