<svg width="20" height="20" viewBox="0 0 20 20" fill="none" xmlns="http://www.w3.org/2000/svg">
<path d="M9.83489 19.6664C4.41226 19.6664 0 15.2559 0 9.83322C0 4.41059 4.41226 0 9.83489 0C12.2915 0 14.6429 0.910174 16.4583 2.56352L16.789 2.8658L13.5457 6.10902L13.2451 5.85183C12.2932 5.03685 11.0824 4.58761 9.83489 4.58761C6.94237 4.58761 4.58761 6.9407 4.58761 9.83322C4.58761 12.7257 6.94237 15.0788 9.83489 15.0788C11.9208 15.0788 13.5691 14.0133 14.3457 12.198H9.40736V7.77071L19.0485 7.78408L19.1203 8.12309C19.623 10.5096 19.2205 14.02 17.1831 16.5318C15.4963 18.611 13.0247 19.6664 9.83489 19.6664Z" fill="#060218"/>
</svg>
